<mxfile host="Electron" agent="Mozilla/5.0 (Windows NT 10.0; Win64; x64) AppleWebKit/537.36 (KHTML, like Gecko) draw.io/26.0.9 Chrome/128.0.6613.186 Electron/32.2.5 Safari/537.36" version="26.0.9">
  <diagram name="Страница — 1" id="zS6Y-AvptROX9ftln9-I">
    <mxGraphModel dx="2062" dy="740" grid="1" gridSize="10" guides="1" tooltips="1" connect="1" arrows="1" fold="1" page="1" pageScale="1" pageWidth="827" pageHeight="1169" math="0" shadow="0">
      <root>
        <mxCell id="0" />
        <mxCell id="1" parent="0" />
        <mxCell id="Y6vDcpu8bE7wVP9YmyGI-1" value="" style="endArrow=block;endSize=10;endFill=0;shadow=0;strokeWidth=1;rounded=0;curved=0;edgeStyle=elbowEdgeStyle;elbow=vertical;exitX=0.5;exitY=0;exitDx=0;exitDy=0;entryX=0.5;entryY=1;entryDx=0;entryDy=0;" edge="1" parent="1" source="Y6vDcpu8bE7wVP9YmyGI-62" target="Y6vDcpu8bE7wVP9YmyGI-21">
          <mxGeometry width="160" relative="1" as="geometry">
            <mxPoint x="-10" y="330" as="sourcePoint" />
            <mxPoint x="472.00000000000045" y="14.70199999999977" as="targetPoint" />
          </mxGeometry>
        </mxCell>
        <mxCell id="Y6vDcpu8bE7wVP9YmyGI-2" value="" style="endArrow=block;endSize=10;endFill=0;shadow=0;strokeWidth=1;rounded=0;curved=0;edgeStyle=elbowEdgeStyle;elbow=vertical;entryX=0.5;entryY=1;entryDx=0;entryDy=0;exitX=0.5;exitY=0;exitDx=0;exitDy=0;" edge="1" parent="1" source="Y6vDcpu8bE7wVP9YmyGI-28" target="Y6vDcpu8bE7wVP9YmyGI-21">
          <mxGeometry width="160" relative="1" as="geometry">
            <mxPoint x="670" y="310" as="sourcePoint" />
            <mxPoint x="472.00000000000045" y="14.753999999999905" as="targetPoint" />
          </mxGeometry>
        </mxCell>
        <mxCell id="Y6vDcpu8bE7wVP9YmyGI-6" value="" style="endArrow=block;endSize=10;endFill=0;shadow=0;strokeWidth=1;rounded=0;curved=0;edgeStyle=elbowEdgeStyle;elbow=vertical;entryX=0.5;entryY=1;entryDx=0;entryDy=0;exitX=0.5;exitY=0;exitDx=0;exitDy=0;" edge="1" parent="1" source="Y6vDcpu8bE7wVP9YmyGI-24" target="Y6vDcpu8bE7wVP9YmyGI-62">
          <mxGeometry width="160" relative="1" as="geometry">
            <mxPoint x="10" y="520" as="sourcePoint" />
            <mxPoint x="-10" y="430" as="targetPoint" />
          </mxGeometry>
        </mxCell>
        <mxCell id="Y6vDcpu8bE7wVP9YmyGI-7" value="" style="endArrow=block;endSize=10;endFill=0;shadow=0;strokeWidth=1;rounded=0;curved=0;edgeStyle=elbowEdgeStyle;elbow=vertical;exitX=0.5;exitY=0;exitDx=0;exitDy=0;entryX=0.5;entryY=1;entryDx=0;entryDy=0;" edge="1" parent="1" source="Y6vDcpu8bE7wVP9YmyGI-13" target="Y6vDcpu8bE7wVP9YmyGI-62">
          <mxGeometry width="160" relative="1" as="geometry">
            <mxPoint x="420" y="530" as="sourcePoint" />
            <mxPoint x="-10" y="430" as="targetPoint" />
          </mxGeometry>
        </mxCell>
        <mxCell id="Y6vDcpu8bE7wVP9YmyGI-8" value="" style="endArrow=block;endSize=10;endFill=0;shadow=0;strokeWidth=1;rounded=0;curved=0;edgeStyle=elbowEdgeStyle;elbow=vertical;exitX=0.5;exitY=0;exitDx=0;exitDy=0;entryX=0.5;entryY=1;entryDx=0;entryDy=0;" edge="1" parent="1" source="Y6vDcpu8bE7wVP9YmyGI-17" target="Y6vDcpu8bE7wVP9YmyGI-62">
          <mxGeometry width="160" relative="1" as="geometry">
            <mxPoint x="180" y="530" as="sourcePoint" />
            <mxPoint x="-10" y="400" as="targetPoint" />
          </mxGeometry>
        </mxCell>
        <mxCell id="Y6vDcpu8bE7wVP9YmyGI-13" value="GraphicEditor" style="swimlane;fontStyle=1;align=center;verticalAlign=top;childLayout=stackLayout;horizontal=1;startSize=26;horizontalStack=0;resizeParent=1;resizeParentMax=0;resizeLast=0;collapsible=1;marginBottom=0;whiteSpace=wrap;html=1;" vertex="1" parent="1">
          <mxGeometry x="120" y="540" width="180" height="140" as="geometry" />
        </mxCell>
        <mxCell id="Y6vDcpu8bE7wVP9YmyGI-14" value="&lt;div&gt;&lt;span style=&quot;background-color: transparent; color: light-dark(rgb(0, 0, 0), rgb(255, 255, 255));&quot;&gt;- side_a: Float&lt;/span&gt;&lt;br&gt;&lt;/div&gt;&lt;div&gt;&lt;span style=&quot;background-color: transparent; color: light-dark(rgb(0, 0, 0), rgb(255, 255, 255));&quot;&gt;- side_b: Float&lt;/span&gt;&lt;/div&gt;" style="text;strokeColor=none;fillColor=none;align=left;verticalAlign=top;spacingLeft=4;spacingRight=4;overflow=hidden;rotatable=0;points=[[0,0.5],[1,0.5]];portConstraint=eastwest;whiteSpace=wrap;html=1;" vertex="1" parent="Y6vDcpu8bE7wVP9YmyGI-13">
          <mxGeometry y="26" width="180" height="34" as="geometry" />
        </mxCell>
        <mxCell id="Y6vDcpu8bE7wVP9YmyGI-15" value="" style="line;strokeWidth=1;fillColor=none;align=left;verticalAlign=middle;spacingTop=-1;spacingLeft=3;spacingRight=3;rotatable=0;labelPosition=right;points=[];portConstraint=eastwest;strokeColor=inherit;" vertex="1" parent="Y6vDcpu8bE7wVP9YmyGI-13">
          <mxGeometry y="60" width="180" height="8" as="geometry" />
        </mxCell>
        <mxCell id="Y6vDcpu8bE7wVP9YmyGI-16" value="- is_square(): -&amp;gt; Bool&lt;div&gt;&lt;br&gt;&lt;/div&gt;" style="text;strokeColor=none;fillColor=none;align=left;verticalAlign=top;spacingLeft=4;spacingRight=4;overflow=hidden;rotatable=0;points=[[0,0.5],[1,0.5]];portConstraint=eastwest;whiteSpace=wrap;html=1;" vertex="1" parent="Y6vDcpu8bE7wVP9YmyGI-13">
          <mxGeometry y="68" width="180" height="72" as="geometry" />
        </mxCell>
        <mxCell id="Y6vDcpu8bE7wVP9YmyGI-17" value="CLI" style="swimlane;fontStyle=1;align=center;verticalAlign=top;childLayout=stackLayout;horizontal=1;startSize=26;horizontalStack=0;resizeParent=1;resizeParentMax=0;resizeLast=0;collapsible=1;marginBottom=0;whiteSpace=wrap;html=1;" vertex="1" parent="1">
          <mxGeometry x="-120" y="540" width="200" height="140" as="geometry" />
        </mxCell>
        <mxCell id="Y6vDcpu8bE7wVP9YmyGI-18" value="&lt;div&gt;&lt;span style=&quot;background-color: transparent; color: light-dark(rgb(0, 0, 0), rgb(255, 255, 255));&quot;&gt;- side_a: Float&lt;/span&gt;&lt;br&gt;&lt;/div&gt;&lt;div&gt;&lt;span style=&quot;background-color: transparent; color: light-dark(rgb(0, 0, 0), rgb(255, 255, 255));&quot;&gt;- side_b: Float&lt;/span&gt;&lt;/div&gt;&lt;div&gt;- side_c: Float&lt;/div&gt;" style="text;strokeColor=none;fillColor=none;align=left;verticalAlign=top;spacingLeft=4;spacingRight=4;overflow=hidden;rotatable=0;points=[[0,0.5],[1,0.5]];portConstraint=eastwest;whiteSpace=wrap;html=1;" vertex="1" parent="Y6vDcpu8bE7wVP9YmyGI-17">
          <mxGeometry y="26" width="200" height="54" as="geometry" />
        </mxCell>
        <mxCell id="Y6vDcpu8bE7wVP9YmyGI-19" value="" style="line;strokeWidth=1;fillColor=none;align=left;verticalAlign=middle;spacingTop=-1;spacingLeft=3;spacingRight=3;rotatable=0;labelPosition=right;points=[];portConstraint=eastwest;strokeColor=inherit;" vertex="1" parent="Y6vDcpu8bE7wVP9YmyGI-17">
          <mxGeometry y="80" width="200" height="8" as="geometry" />
        </mxCell>
        <mxCell id="Y6vDcpu8bE7wVP9YmyGI-20" value="- is_&lt;span style=&quot;white-space-collapse: preserve;&quot; data-src-align=&quot;0:14&quot; class=&quot;EzKURWReUAB5oZgtQNkl&quot;&gt;isosceles&lt;/span&gt;(): -&amp;gt; Bool&lt;div&gt;- is_&lt;span style=&quot;white-space-collapse: preserve;&quot; data-src-align=&quot;0:14&quot; class=&quot;EzKURWReUAB5oZgtQNkl&quot;&gt;equilateral&lt;/span&gt;(): -&amp;gt; Bool&lt;/div&gt;&lt;div&gt;- is_scalene(): -&amp;gt; Bool&lt;/div&gt;" style="text;strokeColor=none;fillColor=none;align=left;verticalAlign=top;spacingLeft=4;spacingRight=4;overflow=hidden;rotatable=0;points=[[0,0.5],[1,0.5]];portConstraint=eastwest;whiteSpace=wrap;html=1;" vertex="1" parent="Y6vDcpu8bE7wVP9YmyGI-17">
          <mxGeometry y="88" width="200" height="52" as="geometry" />
        </mxCell>
        <mxCell id="Y6vDcpu8bE7wVP9YmyGI-21" value="&lt;span style=&quot;font-style: italic; text-wrap: nowrap;&quot;&gt;OS&lt;/span&gt;" style="swimlane;fontStyle=1;align=center;verticalAlign=top;childLayout=stackLayout;horizontal=1;startSize=26;horizontalStack=0;resizeParent=1;resizeParentMax=0;resizeLast=0;collapsible=1;marginBottom=0;whiteSpace=wrap;html=1;" vertex="1" parent="1">
          <mxGeometry x="390" y="160" width="250" height="58" as="geometry" />
        </mxCell>
        <mxCell id="Y6vDcpu8bE7wVP9YmyGI-22" value="# name: String" style="text;strokeColor=none;fillColor=none;align=left;verticalAlign=top;spacingLeft=4;spacingRight=4;overflow=hidden;rotatable=0;points=[[0,0.5],[1,0.5]];portConstraint=eastwest;whiteSpace=wrap;html=1;" vertex="1" parent="Y6vDcpu8bE7wVP9YmyGI-21">
          <mxGeometry y="26" width="250" height="24" as="geometry" />
        </mxCell>
        <mxCell id="Y6vDcpu8bE7wVP9YmyGI-23" value="" style="line;strokeWidth=1;fillColor=none;align=left;verticalAlign=middle;spacingTop=-1;spacingLeft=3;spacingRight=3;rotatable=0;labelPosition=right;points=[];portConstraint=eastwest;strokeColor=inherit;" vertex="1" parent="Y6vDcpu8bE7wVP9YmyGI-21">
          <mxGeometry y="50" width="250" height="8" as="geometry" />
        </mxCell>
        <mxCell id="Y6vDcpu8bE7wVP9YmyGI-24" value="MobileApp" style="swimlane;fontStyle=1;align=center;verticalAlign=top;childLayout=stackLayout;horizontal=1;startSize=26;horizontalStack=0;resizeParent=1;resizeParentMax=0;resizeLast=0;collapsible=1;marginBottom=0;whiteSpace=wrap;html=1;" vertex="1" parent="1">
          <mxGeometry x="-350" y="540" width="200" height="140" as="geometry" />
        </mxCell>
        <mxCell id="Y6vDcpu8bE7wVP9YmyGI-25" value="&lt;div&gt;&lt;span style=&quot;background-color: transparent; color: light-dark(rgb(0, 0, 0), rgb(255, 255, 255));&quot;&gt;- radius: Float&lt;/span&gt;&lt;/div&gt;" style="text;strokeColor=none;fillColor=none;align=left;verticalAlign=top;spacingLeft=4;spacingRight=4;overflow=hidden;rotatable=0;points=[[0,0.5],[1,0.5]];portConstraint=eastwest;whiteSpace=wrap;html=1;" vertex="1" parent="Y6vDcpu8bE7wVP9YmyGI-24">
          <mxGeometry y="26" width="200" height="44" as="geometry" />
        </mxCell>
        <mxCell id="Y6vDcpu8bE7wVP9YmyGI-26" value="" style="line;strokeWidth=1;fillColor=none;align=left;verticalAlign=middle;spacingTop=-1;spacingLeft=3;spacingRight=3;rotatable=0;labelPosition=right;points=[];portConstraint=eastwest;strokeColor=inherit;" vertex="1" parent="Y6vDcpu8bE7wVP9YmyGI-24">
          <mxGeometry y="70" width="200" height="8" as="geometry" />
        </mxCell>
        <mxCell id="Y6vDcpu8bE7wVP9YmyGI-27" value="-&amp;nbsp;&lt;span style=&quot;white-space-collapse: preserve;&quot; data-src-align=&quot;6:10&quot; class=&quot;EzKURWReUAB5oZgtQNkl&quot;&gt;circumference_&lt;/span&gt;&lt;span style=&quot;white-space-collapse: preserve;&quot; data-src-align=&quot;0:5&quot; class=&quot;EzKURWReUAB5oZgtQNkl&quot;&gt;length&lt;/span&gt;(): -&amp;gt; Float" style="text;strokeColor=none;fillColor=none;align=left;verticalAlign=top;spacingLeft=4;spacingRight=4;overflow=hidden;rotatable=0;points=[[0,0.5],[1,0.5]];portConstraint=eastwest;whiteSpace=wrap;html=1;" vertex="1" parent="Y6vDcpu8bE7wVP9YmyGI-24">
          <mxGeometry y="78" width="200" height="62" as="geometry" />
        </mxCell>
        <mxCell id="Y6vDcpu8bE7wVP9YmyGI-28" value="&lt;span style=&quot;font-style: italic; text-wrap: nowrap;&quot;&gt;SaaS&lt;/span&gt;" style="swimlane;fontStyle=1;align=center;verticalAlign=top;childLayout=stackLayout;horizontal=1;startSize=26;horizontalStack=0;resizeParent=1;resizeParentMax=0;resizeLast=0;collapsible=1;marginBottom=0;whiteSpace=wrap;html=1;" vertex="1" parent="1">
          <mxGeometry x="680" y="330" width="200" height="86" as="geometry" />
        </mxCell>
        <mxCell id="Y6vDcpu8bE7wVP9YmyGI-29" value="" style="line;strokeWidth=1;fillColor=none;align=left;verticalAlign=middle;spacingTop=-1;spacingLeft=3;spacingRight=3;rotatable=0;labelPosition=right;points=[];portConstraint=eastwest;strokeColor=inherit;" vertex="1" parent="Y6vDcpu8bE7wVP9YmyGI-28">
          <mxGeometry y="26" width="200" height="8" as="geometry" />
        </mxCell>
        <mxCell id="Y6vDcpu8bE7wVP9YmyGI-30" value="# volume(): -&amp;gt; Float&lt;div&gt;# square(): -&amp;gt; Float&lt;/div&gt;&lt;div&gt;# perimetr(): -&amp;gt; Float&lt;/div&gt;" style="text;strokeColor=none;fillColor=none;align=left;verticalAlign=top;spacingLeft=4;spacingRight=4;overflow=hidden;rotatable=0;points=[[0,0.5],[1,0.5]];portConstraint=eastwest;whiteSpace=wrap;html=1;" vertex="1" parent="Y6vDcpu8bE7wVP9YmyGI-28">
          <mxGeometry y="34" width="200" height="52" as="geometry" />
        </mxCell>
        <mxCell id="Y6vDcpu8bE7wVP9YmyGI-37" value="Antivirus" style="swimlane;fontStyle=1;align=center;verticalAlign=top;childLayout=stackLayout;horizontal=1;startSize=26;horizontalStack=0;resizeParent=1;resizeParentMax=0;resizeLast=0;collapsible=1;marginBottom=0;whiteSpace=wrap;html=1;" vertex="1" parent="1">
          <mxGeometry x="-590" y="540" width="200" height="140" as="geometry" />
        </mxCell>
        <mxCell id="Y6vDcpu8bE7wVP9YmyGI-38" value="&lt;div&gt;&lt;span style=&quot;background-color: transparent; color: light-dark(rgb(0, 0, 0), rgb(255, 255, 255));&quot;&gt;- radius: Float&lt;/span&gt;&lt;/div&gt;" style="text;strokeColor=none;fillColor=none;align=left;verticalAlign=top;spacingLeft=4;spacingRight=4;overflow=hidden;rotatable=0;points=[[0,0.5],[1,0.5]];portConstraint=eastwest;whiteSpace=wrap;html=1;" vertex="1" parent="Y6vDcpu8bE7wVP9YmyGI-37">
          <mxGeometry y="26" width="200" height="44" as="geometry" />
        </mxCell>
        <mxCell id="Y6vDcpu8bE7wVP9YmyGI-39" value="" style="line;strokeWidth=1;fillColor=none;align=left;verticalAlign=middle;spacingTop=-1;spacingLeft=3;spacingRight=3;rotatable=0;labelPosition=right;points=[];portConstraint=eastwest;strokeColor=inherit;" vertex="1" parent="Y6vDcpu8bE7wVP9YmyGI-37">
          <mxGeometry y="70" width="200" height="8" as="geometry" />
        </mxCell>
        <mxCell id="Y6vDcpu8bE7wVP9YmyGI-40" value="-&amp;nbsp;&lt;span style=&quot;white-space-collapse: preserve;&quot; data-src-align=&quot;6:10&quot; class=&quot;EzKURWReUAB5oZgtQNkl&quot;&gt;circumference_&lt;/span&gt;&lt;span style=&quot;white-space-collapse: preserve;&quot; data-src-align=&quot;0:5&quot; class=&quot;EzKURWReUAB5oZgtQNkl&quot;&gt;length&lt;/span&gt;(): -&amp;gt; Float" style="text;strokeColor=none;fillColor=none;align=left;verticalAlign=top;spacingLeft=4;spacingRight=4;overflow=hidden;rotatable=0;points=[[0,0.5],[1,0.5]];portConstraint=eastwest;whiteSpace=wrap;html=1;" vertex="1" parent="Y6vDcpu8bE7wVP9YmyGI-37">
          <mxGeometry y="78" width="200" height="62" as="geometry" />
        </mxCell>
        <mxCell id="Y6vDcpu8bE7wVP9YmyGI-51" value="&lt;i&gt;GamingPlatform&lt;/i&gt;" style="swimlane;fontStyle=1;align=center;verticalAlign=top;childLayout=stackLayout;horizontal=1;startSize=26;horizontalStack=0;resizeParent=1;resizeParentMax=0;resizeLast=0;collapsible=1;marginBottom=0;whiteSpace=wrap;html=1;" vertex="1" parent="1">
          <mxGeometry x="360" y="330" width="180" height="90" as="geometry" />
        </mxCell>
        <mxCell id="Y6vDcpu8bE7wVP9YmyGI-52" value="&lt;div&gt;&lt;span style=&quot;background-color: transparent; color: light-dark(rgb(0, 0, 0), rgb(255, 255, 255));&quot;&gt;- side_a: Float&lt;/span&gt;&lt;br&gt;&lt;/div&gt;&lt;div&gt;&lt;span style=&quot;background-color: transparent; color: light-dark(rgb(0, 0, 0), rgb(255, 255, 255));&quot;&gt;- side_b: Float&lt;/span&gt;&lt;/div&gt;" style="text;strokeColor=none;fillColor=none;align=left;verticalAlign=top;spacingLeft=4;spacingRight=4;overflow=hidden;rotatable=0;points=[[0,0.5],[1,0.5]];portConstraint=eastwest;whiteSpace=wrap;html=1;" vertex="1" parent="Y6vDcpu8bE7wVP9YmyGI-51">
          <mxGeometry y="26" width="180" height="34" as="geometry" />
        </mxCell>
        <mxCell id="Y6vDcpu8bE7wVP9YmyGI-53" value="" style="line;strokeWidth=1;fillColor=none;align=left;verticalAlign=middle;spacingTop=-1;spacingLeft=3;spacingRight=3;rotatable=0;labelPosition=right;points=[];portConstraint=eastwest;strokeColor=inherit;" vertex="1" parent="Y6vDcpu8bE7wVP9YmyGI-51">
          <mxGeometry y="60" width="180" height="8" as="geometry" />
        </mxCell>
        <mxCell id="Y6vDcpu8bE7wVP9YmyGI-54" value="- is_square(): -&amp;gt; Bool&lt;div&gt;&lt;br&gt;&lt;/div&gt;" style="text;strokeColor=none;fillColor=none;align=left;verticalAlign=top;spacingLeft=4;spacingRight=4;overflow=hidden;rotatable=0;points=[[0,0.5],[1,0.5]];portConstraint=eastwest;whiteSpace=wrap;html=1;" vertex="1" parent="Y6vDcpu8bE7wVP9YmyGI-51">
          <mxGeometry y="68" width="180" height="22" as="geometry" />
        </mxCell>
        <mxCell id="Y6vDcpu8bE7wVP9YmyGI-55" value="" style="endArrow=block;endSize=10;endFill=0;shadow=0;strokeWidth=1;rounded=0;curved=0;edgeStyle=elbowEdgeStyle;elbow=vertical;entryX=0.5;entryY=1;entryDx=0;entryDy=0;exitX=0.5;exitY=0;exitDx=0;exitDy=0;" edge="1" parent="1" source="Y6vDcpu8bE7wVP9YmyGI-51" target="Y6vDcpu8bE7wVP9YmyGI-21">
          <mxGeometry width="160" relative="1" as="geometry">
            <mxPoint x="790" y="340" as="sourcePoint" />
            <mxPoint x="525" y="228" as="targetPoint" />
          </mxGeometry>
        </mxCell>
        <mxCell id="Y6vDcpu8bE7wVP9YmyGI-56" value="ConsoleGame" style="swimlane;fontStyle=1;align=center;verticalAlign=top;childLayout=stackLayout;horizontal=1;startSize=26;horizontalStack=0;resizeParent=1;resizeParentMax=0;resizeLast=0;collapsible=1;marginBottom=0;whiteSpace=wrap;html=1;" vertex="1" parent="1">
          <mxGeometry x="360" y="499" width="180" height="140" as="geometry" />
        </mxCell>
        <mxCell id="Y6vDcpu8bE7wVP9YmyGI-57" value="&lt;div&gt;&lt;span style=&quot;background-color: transparent; color: light-dark(rgb(0, 0, 0), rgb(255, 255, 255));&quot;&gt;- side_a: Float&lt;/span&gt;&lt;br&gt;&lt;/div&gt;&lt;div&gt;&lt;span style=&quot;background-color: transparent; color: light-dark(rgb(0, 0, 0), rgb(255, 255, 255));&quot;&gt;- side_b: Float&lt;/span&gt;&lt;/div&gt;" style="text;strokeColor=none;fillColor=none;align=left;verticalAlign=top;spacingLeft=4;spacingRight=4;overflow=hidden;rotatable=0;points=[[0,0.5],[1,0.5]];portConstraint=eastwest;whiteSpace=wrap;html=1;" vertex="1" parent="Y6vDcpu8bE7wVP9YmyGI-56">
          <mxGeometry y="26" width="180" height="34" as="geometry" />
        </mxCell>
        <mxCell id="Y6vDcpu8bE7wVP9YmyGI-58" value="" style="line;strokeWidth=1;fillColor=none;align=left;verticalAlign=middle;spacingTop=-1;spacingLeft=3;spacingRight=3;rotatable=0;labelPosition=right;points=[];portConstraint=eastwest;strokeColor=inherit;" vertex="1" parent="Y6vDcpu8bE7wVP9YmyGI-56">
          <mxGeometry y="60" width="180" height="8" as="geometry" />
        </mxCell>
        <mxCell id="Y6vDcpu8bE7wVP9YmyGI-59" value="- is_square(): -&amp;gt; Bool&lt;div&gt;&lt;br&gt;&lt;/div&gt;" style="text;strokeColor=none;fillColor=none;align=left;verticalAlign=top;spacingLeft=4;spacingRight=4;overflow=hidden;rotatable=0;points=[[0,0.5],[1,0.5]];portConstraint=eastwest;whiteSpace=wrap;html=1;" vertex="1" parent="Y6vDcpu8bE7wVP9YmyGI-56">
          <mxGeometry y="68" width="180" height="72" as="geometry" />
        </mxCell>
        <mxCell id="Y6vDcpu8bE7wVP9YmyGI-60" value="" style="endArrow=block;endSize=10;endFill=0;shadow=0;strokeWidth=1;rounded=0;curved=0;edgeStyle=elbowEdgeStyle;elbow=vertical;exitX=0.5;exitY=0;exitDx=0;exitDy=0;entryX=0.501;entryY=1.007;entryDx=0;entryDy=0;entryPerimeter=0;" edge="1" parent="1" source="Y6vDcpu8bE7wVP9YmyGI-56" target="Y6vDcpu8bE7wVP9YmyGI-54">
          <mxGeometry width="160" relative="1" as="geometry">
            <mxPoint x="452.8" y="567" as="sourcePoint" />
            <mxPoint x="440" y="430" as="targetPoint" />
          </mxGeometry>
        </mxCell>
        <mxCell id="Y6vDcpu8bE7wVP9YmyGI-61" value="" style="endArrow=block;endSize=10;endFill=0;shadow=0;strokeWidth=1;rounded=0;curved=0;edgeStyle=elbowEdgeStyle;elbow=vertical;entryX=0.5;entryY=1;entryDx=0;entryDy=0;exitX=0.5;exitY=0;exitDx=0;exitDy=0;" edge="1" parent="1" source="Y6vDcpu8bE7wVP9YmyGI-37" target="Y6vDcpu8bE7wVP9YmyGI-62">
          <mxGeometry width="160" relative="1" as="geometry">
            <mxPoint x="-480" y="450" as="sourcePoint" />
            <mxPoint x="-250" y="430" as="targetPoint" />
          </mxGeometry>
        </mxCell>
        <mxCell id="Y6vDcpu8bE7wVP9YmyGI-62" value="&lt;i&gt;Programm&lt;/i&gt;" style="swimlane;fontStyle=1;align=center;verticalAlign=top;childLayout=stackLayout;horizontal=1;startSize=26;horizontalStack=0;resizeParent=1;resizeParentMax=0;resizeLast=0;collapsible=1;marginBottom=0;whiteSpace=wrap;html=1;" vertex="1" parent="1">
          <mxGeometry x="-120" y="250" width="200" height="140" as="geometry" />
        </mxCell>
        <mxCell id="Y6vDcpu8bE7wVP9YmyGI-63" value="&lt;div&gt;# name: String&lt;/div&gt;" style="text;strokeColor=none;fillColor=none;align=left;verticalAlign=top;spacingLeft=4;spacingRight=4;overflow=hidden;rotatable=0;points=[[0,0.5],[1,0.5]];portConstraint=eastwest;whiteSpace=wrap;html=1;" vertex="1" parent="Y6vDcpu8bE7wVP9YmyGI-62">
          <mxGeometry y="26" width="200" height="54" as="geometry" />
        </mxCell>
        <mxCell id="Y6vDcpu8bE7wVP9YmyGI-64" value="" style="line;strokeWidth=1;fillColor=none;align=left;verticalAlign=middle;spacingTop=-1;spacingLeft=3;spacingRight=3;rotatable=0;labelPosition=right;points=[];portConstraint=eastwest;strokeColor=inherit;" vertex="1" parent="Y6vDcpu8bE7wVP9YmyGI-62">
          <mxGeometry y="80" width="200" height="8" as="geometry" />
        </mxCell>
        <mxCell id="Y6vDcpu8bE7wVP9YmyGI-65" value="- is_&lt;span style=&quot;white-space-collapse: preserve;&quot; data-src-align=&quot;0:14&quot; class=&quot;EzKURWReUAB5oZgtQNkl&quot;&gt;isosceles&lt;/span&gt;(): -&amp;gt; Bool&lt;div&gt;- is_&lt;span style=&quot;white-space-collapse: preserve;&quot; data-src-align=&quot;0:14&quot; class=&quot;EzKURWReUAB5oZgtQNkl&quot;&gt;equilateral&lt;/span&gt;(): -&amp;gt; Bool&lt;/div&gt;&lt;div&gt;- is_scalene(): -&amp;gt; Bool&lt;/div&gt;" style="text;strokeColor=none;fillColor=none;align=left;verticalAlign=top;spacingLeft=4;spacingRight=4;overflow=hidden;rotatable=0;points=[[0,0.5],[1,0.5]];portConstraint=eastwest;whiteSpace=wrap;html=1;" vertex="1" parent="Y6vDcpu8bE7wVP9YmyGI-62">
          <mxGeometry y="88" width="200" height="52" as="geometry" />
        </mxCell>
      </root>
    </mxGraphModel>
  </diagram>
</mxfile>
